<svg width="24" height="24" viewBox="0 0 24 24" fill=" currentColor " stroke= "currentColor"  xmlns="http://www.w3.org/2000/svg">
<path fill-rule="evenodd" clip-rule="evenodd" d="M12 3.75C7.44365 3.75 3.75 7.44365 3.75 12C3.75 16.5563 7.44365 20.25 12 20.25C16.5563 20.25 20.25 16.5563 20.25 12C20.25 7.44365 16.5563 3.75 12 3.75ZM2.25 12C2.25 6.61522 6.61522 2.25 12 2.25C17.3848 2.25 21.75 6.61522 21.75 12C21.75 17.3848 17.3848 21.75 12 21.75C6.61522 21.75 2.25 17.3848 2.25 12Z" fill="white"/>
<path d="M12 18C12.6213 18 13.125 17.4963 13.125 16.875C13.125 16.2537 12.6213 15.75 12 15.75C11.3787 15.75 10.875 16.2537 10.875 16.875C10.875 17.4963 11.3787 18 12 18Z" fill="white"/>
<path fill-rule="evenodd" clip-rule="evenodd" d="M10.7084 7.00733C11.3251 6.75188 12.0037 6.68505 12.6584 6.81527C13.3131 6.9455 13.9144 7.26693 14.3864 7.73894C14.8584 8.21094 15.1799 8.81231 15.3101 9.46699C15.4403 10.1217 15.3735 10.8003 15.118 11.417C14.8626 12.0337 14.43 12.5608 13.875 12.9316C13.5309 13.1615 13.1493 13.325 12.75 13.416V13.5004C12.75 13.9146 12.4142 14.2504 12 14.2504C11.5857 14.2504 11.25 13.9146 11.25 13.5004V12.7504C11.25 12.5515 11.329 12.3607 11.4696 12.2201C11.6103 12.0794 11.801 12.0004 12 12.0004C12.3708 12.0004 12.7333 11.8905 13.0416 11.6844C13.35 11.4784 13.5903 11.1856 13.7322 10.843C13.8741 10.5003 13.9113 10.1233 13.8389 9.75963C13.7666 9.39591 13.588 9.06182 13.3258 8.7996C13.0636 8.53737 12.7295 8.3588 12.3657 8.28645C12.002 8.2141 11.625 8.25123 11.2824 8.39315C10.9398 8.53506 10.647 8.77538 10.4409 9.08373C10.2349 9.39207 10.125 9.75458 10.125 10.1254C10.125 10.5396 9.78917 10.8754 9.37495 10.8754C8.96074 10.8754 8.62495 10.5396 8.62495 10.1254C8.62495 9.45791 8.8229 8.80539 9.19374 8.25037C9.56459 7.69536 10.0917 7.26277 10.7084 7.00733Z" fill="white"/>
</svg>
