<svg width="24" height="24" viewBox="0 0 24 24" fill="currentColor"  stroke= "currentColor" xmlns="http://www.w3.org/2000/svg">
<path fill-rule="evenodd" clip-rule="evenodd" d="M19.5074 2.64173C19.764 2.56934 20.0353 2.56668 20.2933 2.634C20.5513 2.70132 20.7867 2.8362 20.9753 3.02474C21.1638 3.21328 21.2987 3.44867 21.366 3.70668C21.4333 3.96468 21.4307 4.23597 21.3583 4.49259L16.4313 21.9608C16.3484 22.2547 16.1778 22.5163 15.9422 22.7107C15.7067 22.905 15.4174 23.0228 15.1131 23.0484C14.8088 23.0739 14.5039 23.006 14.2393 22.8536C13.9746 22.7012 13.7628 22.4717 13.6321 22.1958L9.83026 14.1697L1.80425 10.3679C1.52826 10.2372 1.29875 10.0254 1.1464 9.76071C0.994039 9.49605 0.926089 9.1912 0.951629 8.88689C0.977169 8.58258 1.09498 8.29331 1.28932 8.05775C1.48366 7.82219 1.74527 7.65156 2.03918 7.56866L2.24278 8.2905L2.03918 7.56866L19.5074 2.64173ZM19.9146 4.0854L2.44637 9.01234L10.4724 12.8141L10.1513 13.4919L10.4724 12.8141C10.7855 12.9624 11.0376 13.2145 11.1859 13.5276L14.9877 21.5536L19.9146 4.0854Z" fill="white"/>
<path fill-rule="evenodd" clip-rule="evenodd" d="M15.1664 8.83363C15.4593 9.12652 15.4593 9.6014 15.1664 9.89429L10.9237 14.1369C10.6308 14.4298 10.156 14.4298 9.86307 14.1369C9.57018 13.844 9.57018 13.3692 9.86307 13.0763L14.1057 8.83363C14.3986 8.54074 14.8735 8.54074 15.1664 8.83363Z" fill="white"/>
</svg>
