<svg width="24" height="24" viewBox="0 0 24 24" fill="currentColor" stroke= "currentColor"  stroke-linecap="round" stroke-linejoin="round" xmlns="http://www.w3.org/2000/svg">
<path fill-rule="evenodd" clip-rule="evenodd" d="M12.0001 3C12.4143 3 12.7501 3.33579 12.7501 3.75L12.7501 5.73371C13.8344 6.05641 14.6251 7.06087 14.6251 8.25C14.6251 9.43913 13.8344 10.4436 12.7501 10.7663L12.7501 20.25C12.7501 20.6642 12.4143 21 12.0001 21C11.5859 21 11.2501 20.6642 11.2501 20.25L11.2501 10.7663C10.1658 10.4436 9.37509 9.43913 9.37509 8.25C9.37509 7.06087 10.1658 6.05641 11.2501 5.7337L11.2501 3.75C11.2501 3.33578 11.5859 3 12.0001 3ZM12.0001 7.125C11.3788 7.125 10.8751 7.62868 10.8751 8.25C10.8751 8.87132 11.3788 9.375 12.0001 9.375C12.6214 9.375 13.1251 8.87132 13.1251 8.25C13.1251 7.62868 12.6214 7.125 12.0001 7.125"/>
<path fill-rule="evenodd" clip-rule="evenodd" d="M18.7502 3C19.1644 3 19.5002 3.33579 19.5002 3.75001L19.5001 13.2337C20.5844 13.5564 21.3751 14.5609 21.3751 15.75C21.3751 16.9391 20.5844 17.9436 19.5001 18.2663L19.5002 20.25C19.5002 20.6642 19.1644 21 18.7502 21C18.336 21 18.0002 20.6642 18.0002 20.25L18.0001 18.2663C16.9158 17.9436 16.1251 16.9391 16.1251 15.75C16.1251 14.5609 16.9158 13.5564 18.0001 13.2337L18.0002 3.74999C18.0002 3.33578 18.336 3 18.7502 3ZM17.6251 15.75C17.6251 15.1287 18.1288 14.625 18.7501 14.625C19.3714 14.625 19.8751 15.1287 19.8751 15.75C19.8751 16.3713 19.3714 16.875 18.7501 16.875C18.1288 16.875 17.6251 16.3713 17.6251 15.75Z"/>
<path fill-rule="evenodd" clip-rule="evenodd" d="M5.25003 3C5.66424 3 6.00003 3.33578 6.00004 3.74999L6.00011 10.2337C7.08441 10.5564 7.87509 11.5609 7.87509 12.75C7.87509 13.9391 7.08441 14.9436 6.0001 15.2663L6.00004 20.25C6.00003 20.6642 5.66424 21 5.25003 21C4.83581 21 4.50003 20.6642 4.50004 20.25L4.5001 15.2663C3.41579 14.9436 2.62509 13.9391 2.62509 12.75C2.62509 11.5609 3.41579 10.5564 4.50011 10.2337L4.50004 3.75001C4.50003 3.33579 4.83582 3 5.25003 3ZM4.12509 12.75C4.12509 12.1287 4.62877 11.625 5.25009 11.625C5.87141 11.625 6.37509 12.1287 6.37509 12.75C6.37509 13.3713 5.87141 13.875 5.25009 13.875C4.62877 13.875 4.12509 13.3713 4.12509 12.75Z"/>
</svg>
