<svg width="24" height="24" viewBox="0 0 24 24" fill="currentColor"  stroke= "currentColor" xmlns="http://www.w3.org/2000/svg">
<path fill-rule="evenodd" clip-rule="evenodd" d="M5.75 5.77332V9.22668C5.77132 9.23778 5.80708 9.25 5.85714 9.25H16.1429C16.1929 9.25 16.2287 9.23778 16.25 9.22668V5.77332C16.2287 5.76222 16.1929 5.75 16.1429 5.75H5.85714C5.80708 5.75 5.77132 5.76222 5.75 5.77332ZM4.25 5.71429C4.25 4.78335 5.10339 4.25 5.85714 4.25H16.1429C16.8966 4.25 17.75 4.78335 17.75 5.71429V9.28571C17.75 10.2166 16.8966 10.75 16.1429 10.75H5.85714C5.10339 10.75 4.25 10.2166 4.25 9.28571V5.71429Z" fill="white"/>
<path fill-rule="evenodd" clip-rule="evenodd" d="M5.84211 13.75C5.8037 13.75 5.75 13.7854 5.75 13.8571V18.1429C5.75 18.2146 5.8037 18.25 5.84211 18.25H20.1579C20.1963 18.25 20.25 18.2146 20.25 18.1429V13.8571C20.25 13.7854 20.1963 13.75 20.1579 13.75H5.84211ZM4.25 13.8571C4.25 12.9821 4.95035 12.25 5.84211 12.25H20.1579C21.0497 12.25 21.75 12.9821 21.75 13.8571V18.1429C21.75 19.0179 21.0497 19.75 20.1579 19.75H5.84211C4.95035 19.75 4.25 19.0179 4.25 18.1429V13.8571Z" fill="white"/>
</svg>
