<svg width="24" height="24" viewBox="0 0 24 24" fill=" currentColor" stroke= "currentColor"  stroke-linecap="round" stroke-linejoin="round" xmlns="http://www.w3.org/2000/svg">
<path fill-rule="evenodd" clip-rule="evenodd" d="M9.75 9C10.1642 9 10.5 9.33579 10.5 9.75V15.75C10.5 16.1642 10.1642 16.5 9.75 16.5C9.33579 16.5 9 16.1642 9 15.75V9.75C9 9.33579 9.33579 9 9.75 9Z"/>
<path fill-rule="evenodd" clip-rule="evenodd" d="M14.25 9C14.6642 9 15 9.33579 15 9.75V15.75C15 16.1642 14.6642 16.5 14.25 16.5C13.8358 16.5 13.5 16.1642 13.5 15.75V9.75C13.5 9.33579 13.8358 9 14.25 9Z" />
<path fill-rule="evenodd" clip-rule="evenodd" d="M9.75 1.5C9.15326 1.5 8.58097 1.73705 8.15901 2.15901C7.73705 2.58097 7.5 3.15326 7.5 3.75V4.5L5.25294 4.50001L5.25 4.5L5.24706 4.50001L3.74963 4.50001C3.33542 4.50001 2.99963 4.83579 2.99963 5.25001C2.99963 5.66422 3.33542 6.00001 3.74963 6.00001L4.5 6.00001V19.5C4.5 19.8978 4.65804 20.2794 4.93934 20.5607C5.22065 20.842 5.60218 21 6 21H18C18.3978 21 18.7794 20.842 19.0607 20.5607C19.342 20.2794 19.5 19.8978 19.5 19.5V6L20.2496 6C20.6638 6 20.9996 5.66421 20.9996 5.25C20.9996 4.83579 20.6638 4.5 20.2496 4.5L18.7509 4.5L18.75 4.5L18.7491 4.5L16.5 4.5V3.75C16.5 3.15326 16.2629 2.58097 15.841 2.15901C15.419 1.73705 14.8467 1.5 14.25 1.5H9.75ZM15 4.5V3.75C15 3.55109 14.921 3.36032 14.7803 3.21967C14.6397 3.07902 14.4489 3 14.25 3H9.75C9.55109 3 9.36032 3.07902 9.21967 3.21967C9.07902 3.36032 9 3.55109 9 3.75V4.5L15 4.5ZM6 19.5V6.00001L18 6V19.5H6Z"/>
</svg>
