<svg width="14" height="15" viewBox="0 0 14 15" fill="none" xmlns="http://www.w3.org/2000/svg">
<g clip-path="url(#clip0_7448_139257)">
<g clip-path="url(#clip1_7448_139257)">
<path d="M7 0.939575C3.61758 0.939575 0.875 3.68215 0.875 7.06458C0.875 10.447 3.61758 13.1896 7 13.1896C10.3824 13.1896 13.125 10.447 13.125 7.06458C13.125 3.68215 10.3824 0.939575 7 0.939575ZM6.5625 4.11145C6.5625 4.05129 6.61172 4.00208 6.67188 4.00208H7.32812C7.38828 4.00208 7.4375 4.05129 7.4375 4.11145V7.8302C7.4375 7.89036 7.38828 7.93958 7.32812 7.93958H6.67188C6.61172 7.93958 6.5625 7.89036 6.5625 7.8302V4.11145ZM7 10.1271C6.82827 10.1236 6.66476 10.0529 6.54455 9.9302C6.42434 9.80751 6.35701 9.64259 6.35701 9.47083C6.35701 9.29906 6.42434 9.13414 6.54455 9.01145C6.66476 8.88876 6.82827 8.81808 7 8.81458C7.17173 8.81808 7.33524 8.88876 7.45545 9.01145C7.57566 9.13414 7.64299 9.29906 7.64299 9.47083C7.64299 9.64259 7.57566 9.80751 7.45545 9.9302C7.33524 10.0529 7.17173 10.1236 7 10.1271Z" fill="#F0F0F0"/>
</g>
</g>
<defs>
<clipPath id="clip0_7448_139257">
<rect width="14" height="14" fill="white" transform="translate(0 0.0645752)"/>
</clipPath>
<clipPath id="clip1_7448_139257">
<rect width="14" height="14" fill="white" transform="translate(0 0.0645752)"/>
</clipPath>
</defs>
</svg>
